<svg width="109" height="204" viewBox="0 0 109 204" fill="none" xmlns="http://www.w3.org/2000/svg">
<path d="M19.7835 74.9509C12.0323 78.4284 8.93632 134.034 2.49854 134.034V203.209H12.2688H106.374L106.385 61.7081C99.8719 72.0746 95.7424 -3.69236 89.1 3.42597C81.7968 11.2523 80.5603 99.3991 71.8149 99.3991C64.9262 99.3991 61.3414 65.9288 54.5299 71.8949C46.5386 78.8945 45.118 169.238 37.0686 173.471C29.9753 177.201 26.8848 71.7649 19.7835 74.9509Z" fill="url(#paint0_linear_2747_8695)" fill-opacity="0.25"/>
<path d="M2.49854 133.138C8.93632 133.138 12.0323 77.9122 19.7835 74.4585C26.8848 71.2943 29.9753 176.009 37.0686 172.304C45.118 168.1 46.5386 78.3751 54.5299 71.4234C61.3414 65.4981 64.9262 98.7395 71.8149 98.7395C80.5603 98.7395 81.7968 11.1956 89.1 3.42274C95.7424 -3.64691 99.8719 71.6019 106.385 61.3063" stroke="#1BD8BA" stroke-width="4" stroke-linecap="round"/>
<defs>
<linearGradient id="paint0_linear_2747_8695" x1="54.4417" y1="2.95312" x2="54.4417" y2="203.209" gradientUnits="userSpaceOnUse">
<stop stop-color="#1BD8BA"/>
<stop offset="1" stop-color="#1BD8BA" stop-opacity="0"/>
</linearGradient>
</defs>
</svg>
