<svg width="14" height="14" viewBox="0 0 14 14" fill="none" xmlns="http://www.w3.org/2000/svg">
<path d="M6.25 8.5V5.3875L5.05 6.5875L4 5.5L7 2.5L10 5.5L8.95 6.5875L7.75 5.3875V8.5H6.25ZM1.75 13.75C1.3375 13.75 0.98125 13.6063 0.68125 13.3188C0.39375 13.0188 0.25 12.6625 0.25 12.25V1.75C0.25 1.3375 0.39375 0.987501 0.68125 0.700001C0.98125 0.4 1.3375 0.25 1.75 0.25H12.25C12.6625 0.25 13.0125 0.4 13.3 0.700001C13.6 0.987501 13.75 1.3375 13.75 1.75V12.25C13.75 12.6625 13.6 13.0188 13.3 13.3188C13.0125 13.6063 12.6625 13.75 12.25 13.75H1.75ZM1.75 12.25H12.25V10H10C9.625 10.475 9.175 10.8438 8.65 11.1063C8.1375 11.3688 7.5875 11.5 7 11.5C6.4125 11.5 5.85625 11.3688 5.33125 11.1063C4.81875 10.8438 4.375 10.475 4 10H1.75V12.25ZM7 10C7.475 10 7.90625 9.8625 8.29375 9.5875C8.68125 9.3125 8.95 8.95 9.1 8.5H12.25V1.75H1.75V8.5H4.9C5.05 8.95 5.31875 9.3125 5.70625 9.5875C6.09375 9.8625 6.525 10 7 10ZM1.75 12.25H4C4.375 12.25 4.81875 12.25 5.33125 12.25C5.85625 12.25 6.4125 12.25 7 12.25C7.5875 12.25 8.1375 12.25 8.65 12.25C9.175 12.25 9.625 12.25 10 12.25H12.25H1.75Z" fill="#B0B0B5"/>
</svg>
